<?xml version="1.0" standalone="no"?>
<!DOCTYPE svg PUBLIC "-//W3C//DTD SVG 20010904//EN"
 "http://www.w3.org/TR/2001/REC-SVG-20010904/DTD/svg10.dtd">
<svg version="1.0" xmlns="http://www.w3.org/2000/svg"
 width="512.000000pt" height="512.000000pt" viewBox="0 0 512.000000 512.000000"
 preserveAspectRatio="xMidYMid meet">
<metadata>
Created by potrace 1.14, written by Peter Selinger 2001-2017
</metadata>
<g transform="translate(0.000000,512.000000) scale(0.100000,-0.100000)"
fill="#000000" stroke="none">
<path d="M415 5110 c-22 -5 -60 -16 -85 -25 -150 -53 -285 -212 -319 -373 -8
-38 -11 -659 -11 -2155 0 -2299 -4 -2151 57 -2277 35 -72 151 -188 223 -223
126 -61 -22 -57 2277 -57 1496 0 2117 3 2155 11 189 39 358 208 397 397 16 75
16 4229 0 4304 -35 167 -166 316 -335 380 l-59 23 -2130 1 c-1172 1 -2148 -2
-2170 -6z m2185 -1175 l0 -175 -355 0 -355 0 -2 -1377 -3 -1378 -197 -3 -198
-2 0 1380 0 1380 -360 0 -360 0 0 168 c0 93 3 172 7 175 3 4 415 7 915 7 l908
0 0 -175z m750 -1205 l0 -1380 500 0 500 0 0 -175 0 -175 -697 2 -698 3 -3
1553 -2 1552 200 0 200 0 0 -1380z"/>
</g>
</svg>
